<svg width="749" height="374" viewBox="0 0 749 374" fill="none" xmlns="http://www.w3.org/2000/svg">
<g id="undraw_Navigation_re_wxx4 1" clip-path="url(#clip0)">
<path id="Vector" d="M548.85 373.56C568.18 373.56 583.85 370.873 583.85 367.56C583.85 364.246 568.18 361.56 548.85 361.56C529.52 361.56 513.85 364.246 513.85 367.56C513.85 370.873 529.52 373.56 548.85 373.56Z" fill="#0053DF"/>
<g id="pin">
<path id="Vector_2" d="M522.835 107.265C522.837 96.3708 526.572 85.8061 533.42 77.3322C540.267 68.8584 549.811 62.9874 560.463 60.698C553.518 59.2076 546.328 59.2894 539.419 60.9373C532.51 62.5853 526.057 65.7577 520.532 70.2223C515.008 74.6869 510.552 80.3305 507.491 86.74C504.43 93.1494 502.841 100.162 502.841 107.265C502.841 114.368 504.43 121.381 507.491 127.791C510.552 134.2 515.008 139.844 520.532 144.308C526.057 148.773 532.51 151.945 539.419 153.593C546.328 155.241 553.518 155.323 560.463 153.833C549.811 151.543 540.267 145.672 533.42 137.198C526.572 128.724 522.837 118.16 522.835 107.265V107.265Z" fill="#0053DF"/>
<path id="Vector_3" d="M471.001 107.265C471.003 81.2812 480.506 56.1946 497.721 36.7312C514.936 17.2678 538.673 4.77104 564.463 1.59502C549.498 -0.239519 534.314 1.12407 519.916 5.5956C505.518 10.0671 492.233 17.5447 480.94 27.5336C469.648 37.5226 460.605 49.7954 454.409 63.5402C448.213 77.2851 445.007 92.1886 445.001 107.265C445.001 155.021 515.232 289.69 541.609 338.585C542.567 340.364 543.989 341.851 545.724 342.887C547.459 343.924 549.442 344.471 551.463 344.471C553.483 344.471 555.466 343.924 557.201 342.887C558.936 341.851 560.358 340.364 561.316 338.585C562.303 336.755 563.358 334.791 564.463 332.73C536.066 279.717 471.001 153.234 471.001 107.265Z" fill="#0053DF"/>
<path id="Vector_4" d="M551.553 345.667C549.349 345.685 547.182 345.096 545.289 343.966C543.396 342.835 541.85 341.206 540.821 339.256C511.737 285.345 444.093 154.837 444.093 107.462C444.093 78.9612 455.414 51.6279 475.567 31.4749C495.72 11.3218 523.054 0 551.554 0C580.055 0 607.388 11.3218 627.542 31.4749C647.695 51.6279 659.016 78.9612 659.016 107.462C659.016 154.842 591.371 285.346 562.287 339.256C561.257 341.206 559.712 342.835 557.819 343.966C555.926 345.096 553.758 345.685 551.553 345.667V345.667ZM551.554 2C523.594 2.03154 496.788 13.1528 477.016 32.9239C457.245 52.695 446.124 79.5014 446.093 107.462C446.093 154.382 513.57 284.528 542.581 338.307C543.453 339.927 544.748 341.281 546.328 342.225C547.908 343.169 549.714 343.667 551.554 343.667C553.394 343.667 555.2 343.169 556.78 342.225C558.36 341.281 559.655 339.927 560.527 338.307C589.539 284.53 657.016 154.386 657.016 107.462C656.985 79.5014 645.864 52.695 626.092 32.9239C606.321 13.1528 579.515 2.03154 551.554 2V2Z" fill="#3F3D56"/>
<path id="Vector_5" d="M551.554 156.089C541.937 156.089 532.535 153.238 524.538 147.894C516.541 142.551 510.308 134.957 506.628 126.071C502.947 117.186 501.984 107.408 503.86 97.9752C505.737 88.5423 510.368 79.8776 517.169 73.0769C523.969 66.2761 532.634 61.6447 542.067 59.7684C551.5 57.892 561.277 58.855 570.163 62.5355C579.048 66.2161 586.643 72.4488 591.986 80.4457C597.33 88.4425 600.181 97.8442 600.181 107.462C600.167 120.354 595.039 132.714 585.923 141.83C576.807 150.947 564.447 156.075 551.554 156.089V156.089ZM551.554 60.834C542.332 60.8338 533.317 63.5684 525.649 68.6918C517.981 73.8152 512.005 81.0974 508.476 89.6175C504.946 98.1376 504.023 107.513 505.822 116.558C507.621 125.603 512.062 133.911 518.583 140.432C525.104 146.953 533.412 151.394 542.457 153.193C551.502 154.993 560.877 154.069 569.397 150.54C577.917 147.011 585.2 141.035 590.323 133.367C595.447 125.699 598.181 116.684 598.181 107.462C598.168 95.0998 593.251 83.2481 584.509 74.5067C575.768 65.7653 563.916 60.8482 551.554 60.834V60.834Z" fill="#3F3D56"/>
</g>
</g>
<defs>
<clipPath id="clip0">
<rect width="748.185" height="373.56" fill="white"/>
</clipPath>
</defs>
</svg>
