<svg width="1000" height="1000" viewBox="0 0 1000 1000" fill="none" xmlns="http://www.w3.org/2000/svg">
<path d="M501.1 817.9H152.3C152.3 749 166.1 700.8 221.2 680.2C276.3 659.5 352 632 393.3 597.6C441.5 556.3 427.7 556.3 416.3 542.5C400.2 524.1 397.9 475.9 397.9 475.9C349.7 462.1 361.2 381.8 370.4 381.8C381.9 381.8 381.9 377.2 375 335.9C365.8 283.1 370.4 253.3 395.7 218.9C421 184.5 499 182.2 499 182.2C499 182.2 577 186.8 602.3 218.9C627.5 253.3 632.1 280.9 623 335.9C616.1 379.5 616.1 381.8 627.6 381.8C639.1 381.8 650.6 462.1 600.1 475.9C600.1 475.9 597.8 524.1 581.7 542.5C570.2 556.3 556.5 556.3 604.7 597.6C646 634.3 721.8 661.9 776.8 680.2C831.9 700.9 845.7 749.1 845.7 817.9H501.1V817.9Z" fill="#FFFCFC"/>
<path d="M875.2 781.1H990C990 730.6 980.8 693.9 939.5 680.1C898.2 666.3 843.1 645.7 811 618.1C774.3 588.3 785.8 588.3 792.6 576.8C804.1 563 806.4 528.6 806.4 528.6C843.1 519.4 833.9 459.7 827.1 459.7C820.3 459.7 817.9 457.4 824.8 425.3C831.7 386.3 829.4 363.3 808.7 340.4C790.3 315.2 733 313 733 313C733 313 675.6 315.3 657.3 340.5C652.7 345.1 650.4 352 645.8 356.6C645.8 356.6 668.7 370.4 671 391C673.3 414 673.3 434.6 661.8 464.4C648 494.2 645.7 512.6 671 535.5C684.8 547 675.6 599.8 675.6 599.8C675.6 599.8 742.2 634.2 813.3 659.5C884.4 684.8 875.2 781.1 875.2 781.1Z" fill="#FFFCFC"/>
<path d="M124.8 781.1H10C10 730.6 19.2 693.9 60.5 680.1C101.8 666.3 156.9 645.7 189 618.1C225.7 588.3 214.2 588.3 207.4 576.8C195.9 563 193.6 528.6 193.6 528.6C156.9 519.4 166.1 459.7 172.9 459.7C179.7 459.7 182.1 457.4 175.2 425.3C168.3 386.3 170.6 363.3 191.3 340.4C209.7 315.2 267 313 267 313C267 313 324.4 315.3 342.7 340.5C347.3 345.1 349.6 352 354.2 356.6C354.2 356.6 331.2 370.4 329 391C326.7 414 326.7 434.6 338.2 464.4C349.7 494.2 354.3 512.6 329 535.5C315.2 547 324.4 599.8 324.4 599.8C324.4 599.8 257.8 634.2 186.7 659.5C115.6 684.8 124.8 781.1 124.8 781.1Z" fill="#FFFCFC"/>
</svg>
